<svg width="26" height="26" viewBox="0 0 26 26" fill="none" xmlns="http://www.w3.org/2000/svg">
<path d="M3.01718 4.09413C3.01701 4.09419 3.01758 4.09399 3.01919 4.0936L3.02574 4.09225C3.03148 4.09121 3.03924 4.0901 3.04936 4.08895C3.06959 4.08665 3.09756 4.08439 3.13464 4.08223C3.20873 4.0779 3.31701 4.07405 3.46816 4.07066C3.77034 4.06389 4.24193 4.05899 4.94984 4.05567C6.36553 4.04903 8.72506 4.04871 12.5616 4.05219L21.96 4.06078L22.2065 4.19335C22.5055 4.35413 22.7045 4.56252 22.8465 4.8627L22.95 5.08158V11.5092V17.937L22.8386 18.176L22.8839 18.1971L22.8386 18.176C22.6978 18.4781 22.425 18.7466 22.1164 18.8863C22.0078 18.9354 21.9362 18.9619 21.8302 18.9787C21.7219 18.996 21.5773 19.0033 21.3227 19.0114C21.0754 19.0193 20.9307 19.0258 20.8503 19.0381C20.8124 19.0439 20.7775 19.0524 20.7543 19.071C20.7405 19.0821 20.7302 19.0972 20.7264 19.1158C20.723 19.1328 20.7259 19.1482 20.7291 19.1592C20.7684 19.2959 20.8472 19.7765 20.9148 20.2517C20.9485 20.4882 20.9791 20.7217 21.0005 20.9078C21.0112 21.001 21.0195 21.0819 21.0247 21.1454C21.0301 21.2103 21.0319 21.2533 21.0305 21.2727C21.0014 21.6776 20.6957 21.9562 20.2857 21.9499C20.2179 21.9489 20.1711 21.9478 20.1166 21.9371C20.0621 21.9263 19.998 21.9054 19.8988 21.8621C19.6992 21.775 19.3676 21.6022 18.7033 21.2557C18.2993 21.0449 18.0004 20.8942 17.7903 20.7961C17.6853 20.7471 17.6018 20.7109 17.538 20.6868C17.4768 20.6637 17.4268 20.6489 17.3927 20.6489C17.3739 20.6489 17.3519 20.6534 17.3287 20.6598C17.3046 20.6665 17.2758 20.6763 17.2423 20.6891C17.1753 20.7147 17.0868 20.7532 16.975 20.8054C16.7513 20.9097 16.4313 21.0701 15.9981 21.2944C15.449 21.5785 15.1348 21.7382 14.9316 21.8288C14.7298 21.9188 14.642 21.9387 14.5452 21.9457C14.2531 21.9666 14.0089 21.8539 13.8652 21.6386C13.7889 21.5241 13.7497 21.4016 13.7531 21.1674C13.7564 20.9303 13.8033 20.5841 13.8965 20.0254L14.0544 19.0787L14.0641 19.0206L14.0052 19.0205L8.5574 19.0095L3.12055 18.9985L2.87933 18.8879L2.85849 18.9334L2.87932 18.8879C2.57601 18.7489 2.30513 18.4791 2.16031 18.1713L2.11511 18.1926L2.16031 18.1713L2.05 17.9369V11.5092V5.08158L2.15209 4.86572C2.15209 4.86572 2.15209 4.86572 2.15209 4.86572C2.3299 4.48984 2.61123 4.23843 3.01718 4.09413ZM3.01718 4.09413C3.01718 4.09413 3.01718 4.09413 3.01718 4.09413L3.00057 4.04738L3.01718 4.09413ZM11.4031 12.031C11.3704 12.0433 11.3242 12.054 11.2273 12.0625C11.1303 12.0709 10.9854 12.0768 10.7568 12.0805C10.2999 12.088 9.51316 12.0869 8.11619 12.0819C6.57137 12.0763 5.78927 12.0732 5.37918 12.0611C5.17348 12.055 5.06443 12.0468 5.00039 12.0355C4.96895 12.03 4.95024 12.0241 4.93718 12.0183C4.9244 12.0126 4.91503 12.0062 4.90174 11.9963L4.87584 12.0313L4.90174 11.9963C4.71871 11.8608 4.62925 11.6821 4.62679 11.511C4.62434 11.3403 4.70819 11.1705 4.88526 11.0507C4.88526 11.0507 4.88526 11.0507 4.88526 11.0507L5.00901 10.967L8.22972 10.9778L11.4463 10.9886L11.542 11.0773C11.542 11.0773 11.542 11.0773 11.542 11.0773C11.6254 11.1546 11.6794 11.2277 11.7107 11.3047C11.7419 11.3814 11.752 11.4655 11.7422 11.5671C11.7198 11.7977 11.6019 11.9562 11.4031 12.031ZM11.4031 12.031L11.4207 12.0778L11.4031 12.031C11.4031 12.031 11.4031 12.031 11.4031 12.031ZM19.7541 20.4748L19.754 20.4748C19.7429 20.484 19.7313 20.4857 19.7273 20.4861C19.7222 20.4866 19.7181 20.4863 19.716 20.486C19.7118 20.4856 19.7084 20.4847 19.707 20.4843C19.7036 20.4833 19.7005 20.4821 19.6984 20.4813C19.6938 20.4795 19.6879 20.477 19.6815 20.4741C19.6684 20.4681 19.6499 20.4593 19.6268 20.448C19.5805 20.4253 19.5144 20.3922 19.4335 20.3511C19.2717 20.2688 19.05 20.1543 18.8074 20.0273C18.108 19.6612 17.7478 19.4869 17.3904 19.4869C17.033 19.4869 16.6728 19.6612 15.9734 20.0273C15.7308 20.1543 15.5088 20.2686 15.3466 20.3506C15.2655 20.3915 15.1991 20.4245 15.1525 20.4469C15.1292 20.4581 15.1105 20.4668 15.0971 20.4727C15.0905 20.4756 15.0844 20.4781 15.0794 20.4799C15.0772 20.4807 15.0736 20.482 15.0698 20.4829C15.0681 20.4833 15.0643 20.4841 15.0595 20.4843C15.0571 20.4844 15.0528 20.4845 15.0477 20.4835C15.0429 20.4826 15.0333 20.4801 15.024 20.4722C15.0136 20.4632 15.01 20.4527 15.0091 20.45C15.0077 20.4458 15.0071 20.4423 15.0068 20.4405C15.0063 20.4367 15.0062 20.4335 15.0062 20.4318C15.0062 20.428 15.0064 20.424 15.0067 20.4204C15.0072 20.413 15.0083 20.4031 15.0097 20.3913C15.0126 20.3675 15.0172 20.3333 15.0234 20.2907C15.0358 20.2052 15.0544 20.0841 15.0773 19.9395C15.123 19.6501 15.1857 19.2658 15.2496 18.882C15.3135 18.4982 15.3785 18.1148 15.4288 17.8273C15.4539 17.6836 15.4754 17.5637 15.4912 17.4796C15.4991 17.4376 15.5057 17.4042 15.5106 17.3811C15.5131 17.3697 15.5152 17.3602 15.5171 17.3532C15.518 17.3499 15.5191 17.3459 15.5205 17.3422C15.5208 17.3412 15.5215 17.3395 15.5225 17.3373C15.5231 17.336 15.5238 17.3345 15.5247 17.333C15.5258 17.3311 15.5283 17.3268 15.5327 17.3224C15.5359 17.3191 15.5482 17.3072 15.5687 17.3072C15.5763 17.3072 15.5827 17.309 15.5843 17.3094L15.5845 17.3095C15.5873 17.3103 15.5901 17.3112 15.5925 17.312C15.5974 17.3137 15.6032 17.316 15.6094 17.3186C15.622 17.3238 15.6386 17.3312 15.6579 17.34L19.7541 20.4748ZM19.7541 20.4748C19.7592 20.4699 19.7658 20.4607 19.7678 20.4567C19.7689 20.454 19.7705 20.4493 19.771 20.4473C19.7719 20.4434 19.7721 20.4402 19.7722 20.4388C19.7724 20.4357 19.7723 20.4331 19.7723 20.4317C19.7722 20.4285 19.7719 20.425 19.7715 20.4217C19.7708 20.4149 19.7697 20.4054 19.7682 20.3939C19.7651 20.3706 19.7603 20.3371 19.754 20.2949C19.7414 20.2105 19.7227 20.0906 19.7 19.9471C19.6546 19.66 19.5927 19.278 19.53 18.8958C19.4673 18.5135 19.4037 18.131 19.3547 17.8428C19.3302 17.6987 19.3094 17.5781 19.2942 17.4928C19.2866 17.4502 19.2803 17.4163 19.2757 17.3926C19.2734 17.3808 19.2714 17.3711 19.2698 17.3641L19.2674 17.3543L19.2656 17.3486C19.2652 17.3475 19.2645 17.3457 19.2635 17.3435C19.2628 17.3422 19.2604 17.3372 19.2558 17.3319M19.7541 20.4748L15.801 17.4086C16.2612 17.6371 16.8016 17.7555 17.3904 17.7555C17.9817 17.7555 18.5196 17.6371 18.9853 17.4059C19.0408 17.3783 19.0931 17.3545 19.1327 17.3383C19.1523 17.3303 19.1698 17.3237 19.1835 17.3196C19.1901 17.3176 19.1976 17.3156 19.2048 17.3146C19.2082 17.3141 19.2138 17.3135 19.2204 17.3141C19.2245 17.3144 19.2422 17.3162 19.2558 17.3319M19.2558 17.3319L19.2181 17.3647L19.2557 17.3318C19.2558 17.3318 19.2558 17.3318 19.2558 17.3319ZM20.5144 17.8142L20.5217 17.8555H20.5636H21.1116C21.3695 17.8555 21.5121 17.8545 21.5972 17.8419C21.6408 17.8354 21.6745 17.8253 21.7025 17.8074C21.7306 17.7895 21.7486 17.7663 21.7645 17.7437C21.779 17.7232 21.7866 17.6935 21.7923 17.657C21.7983 17.6181 21.8034 17.5625 21.8077 17.4829C21.8165 17.3233 21.8227 17.0618 21.8271 16.633C21.836 15.7749 21.8377 14.2435 21.8377 11.5092C21.8377 8.77501 21.836 7.24353 21.8271 6.3855C21.8227 5.95668 21.8165 5.69518 21.8077 5.5356C21.8034 5.45597 21.7983 5.40036 21.7923 5.36149C21.7866 5.32494 21.779 5.29529 21.7645 5.27475C21.7645 5.27474 21.7645 5.27474 21.7645 5.27473L21.7006 5.18415L21.6856 5.16299H21.6597H12.5H3.34026H3.31435L3.29941 5.18415L3.23548 5.27473C3.23547 5.27474 3.23547 5.27474 3.23547 5.27475C3.22096 5.29529 3.21342 5.32494 3.20774 5.36149C3.20169 5.40036 3.19662 5.45597 3.19226 5.5356C3.18351 5.69518 3.1773 5.95668 3.17287 6.3855C3.16402 7.24353 3.16233 8.77501 3.16233 11.5092C3.16233 14.2435 3.16402 15.7749 3.17287 16.633C3.1773 17.0618 3.18351 17.3233 3.19226 17.4829C3.19662 17.5625 3.20169 17.6181 3.20774 17.657C3.21342 17.6935 3.22096 17.7232 3.23547 17.7437C3.23547 17.7437 3.23547 17.7437 3.23548 17.7437L3.29941 17.8343L3.31435 17.8555H3.34026H8.78316C10.28 17.8555 11.6408 17.8523 12.6274 17.8472C13.1207 17.8447 13.5206 17.8416 13.7972 17.8383C13.9354 17.8366 14.043 17.8348 14.1162 17.833C14.1527 17.8321 14.181 17.8311 14.2003 17.8302C14.2098 17.8297 14.2179 17.8292 14.2239 17.8286C14.225 17.8284 14.2262 17.8283 14.2275 17.8282C14.2296 17.8279 14.2319 17.8276 14.2341 17.8271C14.2356 17.8268 14.2396 17.826 14.2443 17.8241C14.2464 17.8233 14.2517 17.821 14.2573 17.8165C14.2622 17.8125 14.276 17.7996 14.276 17.7774C14.276 17.7791 14.276 17.7784 14.2767 17.7731C14.277 17.7711 14.2773 17.7684 14.2778 17.765L14.284 17.7218C14.2894 17.6852 14.2972 17.6339 14.3069 17.5718C14.3264 17.4474 14.3532 17.2798 14.3827 17.0987L14.3333 17.0907L14.3827 17.0987L14.4899 16.4403L14.4932 16.4205L14.4819 16.404L14.3177 16.1635L14.3177 16.1635C14.0847 15.8225 13.9194 15.4783 13.7937 15.0724C13.7437 14.9112 13.717 14.8096 13.7021 14.676C13.687 14.5408 13.6839 14.3721 13.6831 14.0765C13.6821 13.6965 13.6979 13.4362 13.7508 13.1956C13.8036 12.9555 13.8939 12.7325 14.0451 12.4279C14.7735 10.9617 16.3972 10.1381 18.0099 10.417C19.4968 10.6742 20.647 11.7408 21.024 13.2129C21.0743 13.4093 21.1007 13.7339 21.1015 14.0624C21.1022 14.391 21.0772 14.716 21.0278 14.9133C20.9282 15.3106 20.7363 15.7436 20.5024 16.0986L20.5441 16.1261L20.5024 16.0986L20.2953 16.4128L20.2846 16.429L20.2877 16.4482L20.3594 16.8965C20.3989 17.1431 20.4499 17.4506 20.4728 17.5799L20.5144 17.8142ZM19.6462 7.68046L19.676 7.64028L19.6462 7.68047C19.829 7.81577 19.9185 7.99446 19.9211 8.16563C19.9237 8.33629 19.8402 8.50591 19.6638 8.62535L19.541 8.70845H12.2864C11.7773 8.70845 11.3031 8.70852 10.8613 8.70858C7.84804 8.70903 6.34268 8.70925 5.57668 8.68541C5.35722 8.67858 5.19944 8.6698 5.08472 8.65859C4.96935 8.64733 4.90047 8.63385 4.8572 8.61884C4.81625 8.60463 4.80063 8.58993 4.78958 8.57518C4.78287 8.56623 4.77715 8.55627 4.76891 8.54185C4.76103 8.52806 4.7514 8.51125 4.73835 8.49308C4.52487 8.19578 4.63902 7.78525 4.97673 7.63889C4.97684 7.63885 4.98241 7.63693 4.99856 7.6345C5.01358 7.63224 5.03449 7.62998 5.06253 7.62778C5.11853 7.6234 5.20032 7.61947 5.31507 7.61602C5.54442 7.60911 5.90294 7.60414 6.44486 7.6008C7.52855 7.5941 9.34395 7.59388 12.3223 7.59749L19.546 7.60623L19.6462 7.68046ZM18.1154 16.532L18.1005 16.4842L18.1154 16.532C18.9449 16.2738 19.6376 15.5825 19.8781 14.771C20.1686 13.7908 19.7892 12.648 18.9707 12.0378C18.6547 11.8022 18.4951 11.7202 18.1412 11.612C17.6165 11.4517 17.0443 11.4632 16.5239 11.6446C15.3561 12.0516 14.6175 13.299 14.8378 14.4959C15.0282 15.5302 15.8349 16.361 16.8596 16.5777C17.0364 16.6151 17.2713 16.6279 17.4998 16.6197C17.7281 16.6114 17.955 16.5819 18.1154 16.532Z" fill="#AC9376" stroke="white" stroke-width="0.1"/>
</svg>
