<svg width="25" height="26" viewBox="0 0 25 26" fill="none" xmlns="http://www.w3.org/2000/svg">
<path fill-rule="evenodd" clip-rule="evenodd" d="M10.3378 1.14438C10.2297 1.256 10.1896 1.49285 10.1896 2.02017V2.74308H9.2183C8.58855 2.74308 8.2072 2.78414 8.13383 2.85985C8.06056 2.93546 8.02067 3.3282 8.02067 3.97501V4.97331L7.24268 5.00163L6.46469 5.02985L6.43913 6.9517L6.41358 8.87356H4.63052C3.13537 8.87356 2.82361 8.89828 2.69932 9.02644C2.56701 9.16296 2.55117 10.0339 2.55117 17.1518V25.1242H2.14567C1.55421 25.1242 1.31214 25.486 1.662 25.8471C1.79506 25.9843 2.90772 26 12.5 26C22.0923 26 23.2049 25.9843 23.338 25.8471C23.6879 25.486 23.4458 25.1242 22.8543 25.1242H22.4488V14.1218C22.4488 6.72381 22.4169 3.05787 22.3512 2.93127C22.257 2.74969 22.1114 2.74308 18.2208 2.74308C15.2099 2.74308 14.1593 2.77266 14.0748 2.85985C14.0015 2.93555 13.9617 3.32907 13.9617 3.97891V4.98119H13.5845H13.2073V3.97891C13.2073 3.32907 13.1675 2.93555 13.0941 2.85985C13.0207 2.78414 12.6394 2.74308 12.0096 2.74308H11.0383V2.02834C11.0383 1.45947 11.0031 1.28071 10.8658 1.15256C10.6506 0.951516 10.5266 0.949569 10.3378 1.14438ZM12.3585 4.30003V4.98119H10.614H8.86938V4.30003V3.61886H10.614H12.3585V4.30003ZM21.6001 14.374V25.1292L20.1149 25.1023L18.6296 25.0756L18.6053 19.3434C18.5881 15.3067 18.5498 13.5724 18.4758 13.4805C18.2988 13.2604 18.0176 13.3322 17.8472 13.6411C17.7138 13.8831 17.6268 13.9325 17.333 13.9331C17.0551 13.9335 16.9793 13.8961 16.9793 13.7585C16.9793 13.5163 16.7954 13.3498 16.5279 13.3498C16.3644 13.3498 16.2736 13.4297 16.1961 13.6417C16.0919 13.9265 16.0738 13.9336 15.4499 13.9336H14.8104V8.77625V3.61886H18.2053H21.6001V14.374ZM16.2438 5.09796C16.1815 5.16219 16.1306 5.41616 16.1306 5.66236C16.1306 6.15163 16.2502 6.34352 16.555 6.34352C16.8598 6.34352 16.9793 6.15163 16.9793 5.66236C16.9793 5.17309 16.8598 4.98119 16.555 4.98119C16.4461 4.98119 16.306 5.03374 16.2438 5.09796ZM17.8343 5.16374C17.7064 5.41042 17.7049 5.91147 17.8314 6.15533C17.9455 6.37544 18.3218 6.40444 18.4818 6.20544C18.5458 6.12594 18.5807 5.84744 18.5641 5.5486C18.5361 5.04396 18.5271 5.02907 18.2351 4.99987C18.0128 4.97759 17.9088 5.02011 17.8343 5.16374ZM19.5443 5.09796C19.4821 5.16219 19.4312 5.41616 19.4312 5.66236C19.4312 6.15854 19.5507 6.34352 19.8711 6.34352C20.1241 6.34352 20.2799 6.084 20.2799 5.66236C20.2799 5.49479 20.2359 5.27292 20.1823 5.16939C20.0732 4.959 19.7176 4.91921 19.5443 5.09796ZM13.9617 9.89531V13.9336H12.5H11.0383V13.2525V12.5713L11.5806 12.57C12.319 12.5682 12.539 12.4926 12.6059 12.2179C12.7038 11.8154 12.5036 11.6955 11.7341 11.6955H11.0383V11.0144V10.3332L11.5806 10.3318C12.319 10.3301 12.539 10.2545 12.6059 9.97977C12.703 9.58042 12.5025 9.45742 11.7547 9.45742C11.0912 9.45742 11.0778 9.45236 10.9729 9.16549L10.8661 8.87356H9.06619H7.26625V7.36527V5.85697H10.614H13.9617V9.89531ZM8.69964 7.33608C8.52641 7.51483 8.56498 7.88179 8.76886 7.99437C8.87448 8.05266 9.63974 8.09509 10.5868 8.09509C11.9144 8.09509 12.2617 8.06658 12.4318 7.94358C12.6625 7.77698 12.7037 7.51707 12.5283 7.33608C12.3686 7.17133 8.85929 7.17133 8.69964 7.33608ZM16.3403 7.85736C16.1829 7.97102 16.1306 8.10608 16.1306 8.39889C16.1306 8.61346 16.1746 8.87376 16.2282 8.97729C16.3373 9.18768 16.6929 9.22748 16.8662 9.04872C17.0335 8.87609 17.0089 8.04225 16.8312 7.85872C16.647 7.66878 16.6013 7.66868 16.3403 7.85736ZM17.9223 7.90047C17.5765 8.2573 17.77 9.16549 18.1918 9.16549C18.4711 9.16549 18.5825 8.95287 18.5825 8.41961C18.5825 8.01267 18.5449 7.88656 18.4001 7.80657C18.1567 7.67218 18.1405 7.67539 17.9223 7.90047ZM19.5962 7.81095C19.4722 7.88548 19.4312 8.03709 19.4312 8.42107C19.4312 8.95219 19.5427 9.16549 19.8206 9.16549C20.2721 9.16549 20.4611 8.28212 20.0913 7.90047C19.8782 7.68055 19.8282 7.6715 19.5962 7.81095ZM10.1896 17.4368V25.1242H9.24659H8.30357V24.1219C8.30357 23.4721 8.26378 23.0786 8.19041 23.0029C8.03302 22.8405 5.55647 22.8405 5.39908 23.0029C5.32571 23.0786 5.28592 23.4721 5.28592 24.1219V25.1242H4.3429H3.39988V17.4368V9.74935H6.79475H10.1896V17.4368ZM16.2788 10.6807C15.9737 10.9956 16.1573 11.9875 16.5207 11.9875C16.5723 11.9875 16.6966 11.9421 16.797 11.8867C16.9428 11.8061 16.9793 11.6804 16.9793 11.2576C16.9793 10.8348 16.9428 10.7092 16.797 10.6285C16.5491 10.4917 16.4526 10.5015 16.2788 10.6807ZM17.8806 10.7441C17.4805 11.3333 18.0094 12.3453 18.4693 11.8707C18.5315 11.8065 18.5825 11.5306 18.5825 11.2576C18.5825 10.9847 18.5315 10.7088 18.4693 10.6446C18.2939 10.4636 18.042 10.5061 17.8806 10.7441ZM19.5443 10.6446C19.3975 10.7961 19.3975 11.7192 19.5443 11.8707C19.8417 12.1775 20.2799 11.8123 20.2799 11.2576C20.2799 10.703 19.8417 10.3378 19.5443 10.6446ZM4.81771 11.8837C4.76405 11.9873 4.72011 12.2091 4.72011 12.3767C4.72011 12.5443 4.76405 12.7661 4.81771 12.8697C4.92682 13.08 5.28243 13.1198 5.45566 12.9411C5.60239 12.7897 5.60239 11.9637 5.45566 11.8123C5.28243 11.6335 4.92682 11.6733 4.81771 11.8837ZM6.5307 11.8123C6.38397 11.9637 6.38397 12.7897 6.5307 12.9411C6.70393 13.1198 7.05954 13.08 7.16865 12.8697C7.22231 12.7661 7.26625 12.5443 7.26625 12.3767C7.26625 12.2091 7.22231 11.9873 7.16865 11.8837C7.05954 11.6733 6.70393 11.6335 6.5307 11.8123ZM8.13383 11.8123C7.9871 11.9637 7.9871 12.7897 8.13383 12.9411C8.19607 13.0053 8.33611 13.0579 8.44503 13.0579C8.74981 13.0579 8.86938 12.866 8.86938 12.3767C8.86938 11.8874 8.74981 11.6955 8.44503 11.6955C8.33611 11.6955 8.19607 11.7481 8.13383 11.8123ZM19.5443 13.4666C19.4821 13.5308 19.4312 13.8139 19.4312 14.0957C19.4312 14.5019 19.4688 14.6287 19.613 14.7083C19.982 14.9122 20.2799 14.5938 20.2799 13.9956C20.2799 13.4703 19.8443 13.157 19.5443 13.4666ZM4.90871 14.6148C4.53886 14.9965 4.72793 15.8798 5.17945 15.8798C5.45745 15.8798 5.56882 15.6664 5.56882 15.134C5.56882 14.727 5.53129 14.6009 5.38644 14.5209C5.14305 14.3865 5.12683 14.3897 4.90871 14.6148ZM6.58257 14.5253C6.45809 14.6001 6.41754 14.7518 6.41754 15.1429C6.41754 15.7284 6.56719 15.9354 6.92375 15.8431C7.29775 15.7462 7.39809 14.9455 7.07765 14.6148C6.86453 14.3949 6.81455 14.3858 6.58257 14.5253ZM8.16882 14.5731C7.99106 14.7566 7.96654 15.5904 8.13383 15.7631C8.30706 15.9418 8.66267 15.902 8.77178 15.6916C8.82544 15.5881 8.86938 15.3278 8.86938 15.1132C8.86938 14.8204 8.81714 14.6854 8.65975 14.5717C8.39872 14.383 8.35299 14.3831 8.16882 14.5731ZM17.7337 19.9668V25.1242H14.386H11.0383V19.9668V14.8094H14.386H17.7337V19.9668ZM12.4717 15.7047C12.309 15.8725 12.309 23.9638 12.4717 24.1317C12.6172 24.2818 12.9486 24.2818 13.0941 24.1317C13.2426 23.9784 13.2574 16.061 13.1097 15.7761C13.0006 15.5657 12.6449 15.5259 12.4717 15.7047ZM14.0593 15.7761C13.9115 16.061 13.9263 23.9784 14.0748 24.1317C14.2203 24.2818 14.5517 24.2818 14.6972 24.1317C14.8599 23.9638 14.8599 15.8725 14.6972 15.7047C14.524 15.5259 14.1684 15.5657 14.0593 15.7761ZM15.7116 15.8042C15.5846 15.9913 15.5648 16.5528 15.5648 19.9698C15.5648 24.2883 15.5655 24.2938 16.0881 24.2325L16.3664 24.1998L16.391 20.0268C16.4086 17.0268 16.3855 15.8163 16.3087 15.7208C16.149 15.5222 15.8772 15.5602 15.7116 15.8042ZM19.5443 16.2885C19.4821 16.3528 19.4312 16.6067 19.4312 16.8529C19.4312 17.3491 19.5507 17.5341 19.8711 17.5341C20.1241 17.5341 20.2799 17.2746 20.2799 16.8529C20.2799 16.6854 20.2359 16.4635 20.1823 16.36C20.0732 16.1496 19.7176 16.1098 19.5443 16.2885ZM4.86694 17.4585C4.46691 18.0477 4.99575 19.0596 5.45566 18.585C5.5179 18.5208 5.56882 18.2449 5.56882 17.972C5.56882 17.699 5.5179 17.4232 5.45566 17.3589C5.28026 17.1779 5.02838 17.2205 4.86694 17.4585ZM6.5307 17.3589C6.38387 17.5104 6.38387 18.4335 6.5307 18.585C6.82803 18.8918 7.26625 18.5266 7.26625 17.972C7.26625 17.4173 6.82803 17.0521 6.5307 17.3589ZM8.1857 17.3473C7.93693 17.4968 7.95032 18.4614 8.20305 18.6011C8.45087 18.7379 8.54744 18.7282 8.72124 18.5489C8.81054 18.4567 8.86938 18.2277 8.86938 17.972C8.86938 17.3662 8.58554 17.1069 8.1857 17.3473ZM19.5962 19.0015C19.4722 19.0761 19.4312 19.2277 19.4312 19.6116C19.4312 20.1428 19.5427 20.3561 19.8206 20.3561C20.2721 20.3561 20.4611 19.4727 20.0913 19.091C19.8782 18.8711 19.8282 18.8621 19.5962 19.0015ZM4.86826 20.217C4.59073 20.5035 4.71388 21.3285 5.05441 21.4633C5.3806 21.5925 5.56882 21.3535 5.56882 20.81C5.56882 20.5282 5.5179 20.2451 5.45566 20.1809C5.29903 20.0193 5.04479 20.0349 4.86826 20.217ZM6.5307 20.1809C6.46846 20.2451 6.41754 20.5282 6.41754 20.81C6.41754 21.2163 6.45517 21.3431 6.59935 21.4227C6.95091 21.6168 7.26625 21.3098 7.26625 20.7733C7.26625 20.2372 6.82247 19.8798 6.5307 20.1809ZM8.13383 20.1809C7.96654 20.3535 7.99106 21.1874 8.16882 21.3709C8.35299 21.5608 8.39872 21.5609 8.65975 21.3723C8.82204 21.255 8.86938 21.1247 8.86938 20.7954C8.86938 20.1882 8.45898 19.8454 8.13383 20.1809ZM19.5962 21.8235C19.3994 21.9418 19.3604 22.8714 19.5443 23.0613C20.0111 23.5429 20.539 22.5328 20.1331 21.9347C19.9725 21.6981 19.8479 21.6723 19.5962 21.8235ZM7.45486 24.4431C7.45486 24.8323 7.4144 25.1242 7.36056 25.1242C7.30869 25.1242 7.26625 24.9588 7.26625 24.7567C7.26625 24.3309 7.04851 23.9565 6.80097 23.9565C6.5489 23.9565 6.43423 24.15 6.40047 24.632C6.38387 24.8676 6.31739 25.0785 6.25251 25.1005C6.16566 25.1299 6.13463 24.9591 6.13463 24.4511V23.7619H6.79475H7.45486V24.4431Z" fill="#AC9376"/>
</svg>
