<svg width="25" height="18" viewBox="0 0 25 18" fill="none" xmlns="http://www.w3.org/2000/svg">
<path fill-rule="evenodd" clip-rule="evenodd" d="M12.1858 0.106136C12.0527 0.175212 9.40601 1.54068 6.30433 3.14055C3.20265 4.74043 0.62681 6.09144 0.580195 6.14283C0.478733 6.25475 0.472683 6.45085 0.566979 6.57155C0.604592 6.6197 1.38264 7.04523 2.29598 7.51717L3.95658 8.37527L3.96912 10.7497L3.98166 13.1241H4.36301H4.74431L4.77679 13.334C4.79461 13.4494 4.86862 13.658 4.94118 13.7975C5.06588 14.0371 5.06975 14.0637 5.01176 14.2798C4.84684 14.8939 4.79228 15.3514 4.76866 16.3196C4.75046 17.0634 4.75946 17.3612 4.8025 17.4392C4.88203 17.5832 5.60973 17.9082 5.99646 17.9724C6.22155 18.0098 6.39039 18.0093 6.62444 17.9704C7.01378 17.9057 7.72575 17.5848 7.80717 17.4373C7.85011 17.3596 7.85872 17.0622 7.8397 16.3188C7.81496 15.3552 7.75872 14.8824 7.59713 14.2807C7.53875 14.0632 7.54263 14.0399 7.68257 13.7662C8.05995 13.0281 7.72599 12.1216 6.94988 11.7772L6.69158 11.6625V10.7249V9.78739L7.09094 9.99715C10.4954 11.7854 12.348 12.7168 12.5004 12.7169C12.631 12.717 13.5357 12.2688 16.4456 10.7626L20.2213 8.80822L20.2349 10.8606L20.2484 12.9129L20.0706 13.0594C19.9728 13.1399 19.6733 13.3386 19.4051 13.5009C17.6805 14.5444 15.8266 15.1439 13.7391 15.3332C12.9674 15.4032 11.2219 15.3648 10.5399 15.2627C9.82376 15.1556 8.78611 14.9234 8.4276 14.7901C8.37552 14.7707 8.32861 14.8504 8.24613 15.0988C8.18494 15.2829 8.15318 15.4512 8.17565 15.4726C8.29778 15.5894 9.8651 15.9353 10.7578 16.0425C11.4301 16.1232 13.5782 16.1226 14.2431 16.0415C15.8412 15.8466 17.3553 15.4002 18.7552 14.7114C19.6108 14.2904 20.8236 13.5206 20.9475 13.3199C20.9772 13.2717 21.0052 12.3035 21.0201 10.8099L21.0443 8.37841L22.7106 7.51689C23.8213 6.94269 24.3978 6.61899 24.4395 6.54621C24.5326 6.38347 24.5183 6.24785 24.396 6.13372C24.2608 6.00759 12.7166 0.0333064 12.5488 0.00266331C12.474 -0.0109923 12.3354 0.0285196 12.1858 0.106136ZM17.8777 3.56017C20.8307 5.08792 23.2468 6.35071 23.2468 6.36634C23.2468 6.38197 20.8295 7.64462 17.875 9.17227L12.5033 11.9498L9.78058 10.5418C8.28311 9.7674 7.04176 9.11817 7.02201 9.09902C7.00226 9.07987 8.05802 8.5115 9.3681 7.8359L11.7501 6.60759L12.0148 6.67484C12.7807 6.86939 13.641 6.57967 13.9223 6.03241C14.0819 5.72194 14.0829 5.51162 13.9261 5.20655C13.6885 4.74432 13.2204 4.51841 12.5004 4.51841C11.7805 4.51841 11.3124 4.74432 11.0748 5.20655C10.9349 5.47853 10.9196 5.68586 11.0217 5.92274C11.0882 6.07718 11.0863 6.08928 10.9854 6.1501C10.7169 6.31181 6.18544 8.63477 6.13897 8.63449C6.07037 8.63412 1.75406 6.4006 1.75406 6.3655C1.75406 6.34414 12.4322 0.79502 12.4924 0.785071C12.5013 0.783617 14.9247 2.03238 17.8777 3.56017ZM12.903 5.30843C13.0046 5.34353 13.1308 5.41007 13.1834 5.45629C13.4833 5.71936 12.8914 6.05874 12.2861 5.97075C12.0294 5.93344 11.7556 5.76638 11.7359 5.63508C11.7072 5.44409 12.0978 5.24456 12.5004 5.24456C12.6202 5.24456 12.8014 5.27328 12.903 5.30843ZM5.37346 9.10991L5.91707 9.38949V10.5288V11.6681L5.73554 11.7413C5.28894 11.9214 5.00726 12.2149 4.84543 12.6689C4.75917 12.9109 4.75845 12.8956 4.7569 10.856C4.75603 9.72465 4.7721 8.80606 4.79257 8.81469C4.8131 8.82328 5.0745 8.95613 5.37346 9.10991ZM6.61069 12.4373C7.10803 12.6387 7.22929 13.2708 6.84251 13.6458C6.29866 14.1731 5.40744 13.7008 5.55053 12.9612C5.63607 12.5195 6.16641 12.2573 6.61069 12.4373ZM6.30433 14.6023C6.45076 14.6023 6.63954 14.5852 6.72382 14.5642L6.87713 14.5262L6.92994 14.7754C7.03174 15.2558 7.07589 15.7341 7.07734 16.3728L7.07884 17.0171L6.87311 17.1225C6.71269 17.2048 6.58736 17.228 6.30433 17.228C6.02129 17.228 5.89596 17.2048 5.73554 17.1225L5.52981 17.0171L5.53131 16.3728C5.53277 15.7341 5.57691 15.2558 5.67871 14.7754L5.73153 14.5262L5.88483 14.5642C5.96911 14.5852 6.15789 14.6023 6.30433 14.6023Z" fill="#AC9376"/>
</svg>
