<svg width="26" height="26" viewBox="0 0 26 26" fill="none" xmlns="http://www.w3.org/2000/svg">
<mask id="path-1-inside-1_1_102" fill="white">
<path fill-rule="evenodd" clip-rule="evenodd" d="M12.6624 1.02728C12.4867 1.05385 12.2693 1.11249 12.1793 1.15761C12.0892 1.20267 9.74186 2.74285 6.96289 4.58022C3.76911 6.69178 1.81986 8.02211 1.66479 8.19605C1.52988 8.34746 1.37357 8.61959 1.31746 8.80095C1.18862 9.21754 1.1771 10.9223 1.30042 11.3186C1.42443 11.7171 1.86865 12.1162 2.30865 12.2246L2.66475 12.3122V16.5278V20.7435L2.30865 20.8311C1.86865 20.9395 1.42443 21.3386 1.30042 21.7371C1.25349 21.8877 1.21554 22.3697 1.21554 22.8138C1.21554 23.5401 1.20367 23.6178 1.09291 23.6178C0.901541 23.6178 0.658005 23.813 0.555664 24.0482C0.421853 24.3556 0.536409 24.7121 0.822939 24.8803C1.03915 25.0072 1.25321 25.0092 13.0664 24.9928L25.0899 24.9762L25.2691 24.8041C25.3809 24.6967 25.4627 24.5291 25.4865 24.3587C25.5211 24.1116 25.5013 24.0629 25.2812 23.8516C25.1474 23.7231 24.9726 23.6178 24.8929 23.6178C24.753 23.6178 24.7479 23.5872 24.7464 22.7399C24.7447 21.7349 24.6637 21.4741 24.2431 21.1195C24.0197 20.9312 23.6251 20.77 23.385 20.769C23.3169 20.7687 23.2987 19.876 23.2987 16.5278C23.2987 13.1796 23.3169 12.287 23.385 12.2867C23.6251 12.2857 24.0197 12.1245 24.2431 11.9362C24.6862 11.5626 24.7448 11.3447 24.7457 10.0673C24.7466 9.02472 24.7346 8.91611 24.5852 8.6082C24.4965 8.42525 24.331 8.18671 24.2175 8.0781C23.9257 7.79888 14.0942 1.29762 13.7493 1.15576C13.383 1.00514 13.0608 0.967044 12.6624 1.02728ZM18.1335 5.70104C20.8631 7.50885 23.1419 9.03167 23.1976 9.08515C23.276 9.16049 23.2987 9.37458 23.2987 10.0392V10.8961L12.999 10.8792L2.69925 10.8625L2.67993 10.0605C2.66337 9.37173 2.678 9.23848 2.78344 9.11609C2.851 9.0377 5.12668 7.5001 7.84049 5.69918C11.4234 3.32158 12.8289 2.42334 12.9727 2.4195C13.1258 2.41532 14.2934 3.15772 18.1335 5.70104ZM12.5569 5.26424C11.9051 5.39239 11.3117 5.83873 11.0096 6.42806C10.8698 6.70086 10.8426 6.85187 10.8437 7.35062C10.8449 7.86627 10.8698 7.99183 11.0276 8.27828C11.2463 8.67552 11.6271 9.03638 12.0501 9.24749C12.3076 9.37597 12.4666 9.40267 12.9817 9.4036C13.501 9.40453 13.6585 9.37842 13.9426 9.24417C15.5874 8.46686 15.5973 6.22212 13.9592 5.4678C13.4876 5.25059 12.9921 5.17863 12.5569 5.26424ZM13.5046 6.84855C13.6662 7.00374 13.7061 7.09929 13.7048 7.32895C13.7012 7.99196 12.9761 8.28617 12.4918 7.82107C12.0074 7.35599 12.3138 6.65977 13.0043 6.65633C13.2435 6.65514 13.343 6.69344 13.5046 6.84855ZM6.39128 16.5278V20.7686H5.28712H4.18297V16.5278V12.2871H5.28712H6.39128V16.5278ZM10.3939 16.5278V20.7686H9.11718H7.84049V16.5278V12.2871H9.11718H10.3939V16.5278ZM14.1204 16.5278V20.7686H13.0162H11.9121V16.5278V12.2871H13.0162H14.1204V16.5278ZM18.123 16.5278V20.7686H16.8463H15.5696V16.5278V12.2871H16.8463H18.123V16.5278ZM21.8495 16.5278V20.7686H20.7454H19.6412V16.5278V12.2871H20.7454H21.8495V16.5278ZM23.2987 22.8892V23.6183L12.999 23.6015L2.69925 23.5847L2.67924 22.9602C2.66827 22.6167 2.67503 22.2962 2.69435 22.2479C2.72327 22.1755 4.53947 22.1601 13.0141 22.1601H23.2987V22.8892Z"/>
</mask>
<path fill-rule="evenodd" clip-rule="evenodd" d="M12.6624 1.02728C12.4867 1.05385 12.2693 1.11249 12.1793 1.15761C12.0892 1.20267 9.74186 2.74285 6.96289 4.58022C3.76911 6.69178 1.81986 8.02211 1.66479 8.19605C1.52988 8.34746 1.37357 8.61959 1.31746 8.80095C1.18862 9.21754 1.1771 10.9223 1.30042 11.3186C1.42443 11.7171 1.86865 12.1162 2.30865 12.2246L2.66475 12.3122V16.5278V20.7435L2.30865 20.8311C1.86865 20.9395 1.42443 21.3386 1.30042 21.7371C1.25349 21.8877 1.21554 22.3697 1.21554 22.8138C1.21554 23.5401 1.20367 23.6178 1.09291 23.6178C0.901541 23.6178 0.658005 23.813 0.555664 24.0482C0.421853 24.3556 0.536409 24.7121 0.822939 24.8803C1.03915 25.0072 1.25321 25.0092 13.0664 24.9928L25.0899 24.9762L25.2691 24.8041C25.3809 24.6967 25.4627 24.5291 25.4865 24.3587C25.5211 24.1116 25.5013 24.0629 25.2812 23.8516C25.1474 23.7231 24.9726 23.6178 24.8929 23.6178C24.753 23.6178 24.7479 23.5872 24.7464 22.7399C24.7447 21.7349 24.6637 21.4741 24.2431 21.1195C24.0197 20.9312 23.6251 20.77 23.385 20.769C23.3169 20.7687 23.2987 19.876 23.2987 16.5278C23.2987 13.1796 23.3169 12.287 23.385 12.2867C23.6251 12.2857 24.0197 12.1245 24.2431 11.9362C24.6862 11.5626 24.7448 11.3447 24.7457 10.0673C24.7466 9.02472 24.7346 8.91611 24.5852 8.6082C24.4965 8.42525 24.331 8.18671 24.2175 8.0781C23.9257 7.79888 14.0942 1.29762 13.7493 1.15576C13.383 1.00514 13.0608 0.967044 12.6624 1.02728ZM18.1335 5.70104C20.8631 7.50885 23.1419 9.03167 23.1976 9.08515C23.276 9.16049 23.2987 9.37458 23.2987 10.0392V10.8961L12.999 10.8792L2.69925 10.8625L2.67993 10.0605C2.66337 9.37173 2.678 9.23848 2.78344 9.11609C2.851 9.0377 5.12668 7.5001 7.84049 5.69918C11.4234 3.32158 12.8289 2.42334 12.9727 2.4195C13.1258 2.41532 14.2934 3.15772 18.1335 5.70104ZM12.5569 5.26424C11.9051 5.39239 11.3117 5.83873 11.0096 6.42806C10.8698 6.70086 10.8426 6.85187 10.8437 7.35062C10.8449 7.86627 10.8698 7.99183 11.0276 8.27828C11.2463 8.67552 11.6271 9.03638 12.0501 9.24749C12.3076 9.37597 12.4666 9.40267 12.9817 9.4036C13.501 9.40453 13.6585 9.37842 13.9426 9.24417C15.5874 8.46686 15.5973 6.22212 13.9592 5.4678C13.4876 5.25059 12.9921 5.17863 12.5569 5.26424ZM13.5046 6.84855C13.6662 7.00374 13.7061 7.09929 13.7048 7.32895C13.7012 7.99196 12.9761 8.28617 12.4918 7.82107C12.0074 7.35599 12.3138 6.65977 13.0043 6.65633C13.2435 6.65514 13.343 6.69344 13.5046 6.84855ZM6.39128 16.5278V20.7686H5.28712H4.18297V16.5278V12.2871H5.28712H6.39128V16.5278ZM10.3939 16.5278V20.7686H9.11718H7.84049V16.5278V12.2871H9.11718H10.3939V16.5278ZM14.1204 16.5278V20.7686H13.0162H11.9121V16.5278V12.2871H13.0162H14.1204V16.5278ZM18.123 16.5278V20.7686H16.8463H15.5696V16.5278V12.2871H16.8463H18.123V16.5278ZM21.8495 16.5278V20.7686H20.7454H19.6412V16.5278V12.2871H20.7454H21.8495V16.5278ZM23.2987 22.8892V23.6183L12.999 23.6015L2.69925 23.5847L2.67924 22.9602C2.66827 22.6167 2.67503 22.2962 2.69435 22.2479C2.72327 22.1755 4.53947 22.1601 13.0141 22.1601H23.2987V22.8892Z" fill="#AC9376" stroke="white" stroke-width="0.4" mask="url(#path-1-inside-1_1_102)"/>
</svg>
