<svg width="25" height="26" viewBox="0 0 25 26" fill="none" xmlns="http://www.w3.org/2000/svg">
<path fill-rule="evenodd" clip-rule="evenodd" d="M11.719 3.02363C11.0159 3.09379 10.0866 3.3059 9.4552 3.54032C8.57837 3.86596 7.22394 4.67996 6.81946 5.12437C6.70525 5.24985 6.71111 5.47429 6.83168 5.59317C6.99389 5.75309 7.21358 5.71859 7.49235 5.48938C7.88705 5.16485 8.64904 4.68998 9.13792 4.46385C9.67631 4.21482 10.3017 3.98917 10.3017 4.04386C10.3017 4.06516 10.2447 4.13517 10.1749 4.19945C9.80817 4.53733 9.16304 5.684 8.82845 6.59273L8.66443 7.03815L7.35375 7.03844L6.04306 7.03873L6.14413 6.8988C6.34651 6.61855 6.20742 6.26776 5.89385 6.26776C5.7203 6.26776 5.62035 6.36741 5.28479 6.87495C3.90089 8.96812 3.55428 11.7113 4.36905 14.122C5.42364 17.2422 8.22511 19.4785 11.55 19.854C12.78 19.9929 13.9938 19.8642 15.2109 19.4659C18.4961 18.3906 20.8104 15.4495 21.0503 12.0448C21.3702 7.50565 18.0213 3.56186 13.4052 3.04151C12.992 2.99496 12.1013 2.98552 11.719 3.02363ZM12.1589 5.40043V7.03873H10.7947H9.43052L9.57304 6.67382C9.78104 6.14123 10.1281 5.47873 10.4088 5.07845C10.7366 4.61096 11.2866 4.10327 11.6698 3.91448C12.2028 3.65182 12.1589 3.51835 12.1589 5.40043ZM13.3176 3.9115C13.9346 4.20176 14.586 4.93553 15.0674 5.88228C15.293 6.32597 15.5311 6.89557 15.5311 6.99165C15.5311 7.02114 15.0296 7.03873 14.1871 7.03873H12.8431V5.40043C12.8431 3.52784 12.7987 3.66729 13.3176 3.9115ZM15.8609 4.4624C16.9454 4.96396 17.983 5.78947 18.7269 6.74258L18.958 7.03873L17.6478 7.03844L16.3376 7.03815L16.1735 6.59273C15.839 5.684 15.1938 4.53733 14.8271 4.19945C14.7573 4.13517 14.7003 4.06516 14.7003 4.04386C14.7003 3.98927 15.3252 4.21463 15.8609 4.4624ZM8.4445 7.78638C8.4445 7.80006 8.39099 8.07655 8.32554 8.40074C8.18406 9.10213 8.05352 10.2164 8.05352 10.7228V11.0863H6.3601H4.66674L4.69538 10.6888C4.75016 9.92865 4.97518 9.10232 5.36753 8.22028L5.57163 7.76151H7.00806C7.7981 7.76151 8.4445 7.77269 8.4445 7.78638ZM12.1589 9.42391V11.0863H10.4602H8.76149L8.79766 10.4478C8.8458 9.59882 9.05767 8.22202 9.20175 7.82174C9.21841 7.77539 9.56111 7.76151 10.6912 7.76151H12.1589V9.42391ZM15.8218 7.94221C15.8498 8.04161 15.909 8.30292 15.9535 8.52294C16.0541 9.02122 16.1598 9.16968 16.3994 9.14944C16.5195 9.13928 16.6021 9.09524 16.67 9.00508L16.7678 8.87537L16.6626 8.35458C16.6047 8.06816 16.5574 7.81721 16.5574 7.79693C16.5575 7.77664 17.2006 7.7658 17.9867 7.77283L19.4158 7.7856L19.5745 8.09881C19.9448 8.82954 20.2421 9.87762 20.3025 10.6647L20.3348 11.0863H18.6416H16.9485V10.7468C16.9485 10.4506 16.9332 10.3922 16.8285 10.2891C16.6742 10.1369 16.4882 10.1384 16.3314 10.2929C16.2185 10.4043 16.2089 10.4448 16.2236 10.7508L16.2398 11.0865L14.5415 11.0864L12.8431 11.0863V9.42391V7.76151H14.307H15.7709L15.8218 7.94221ZM0.978505 11.0435C0.400088 11.3257 -0.0617652 12.2371 0.00675525 12.9607C0.059734 13.5202 0.479117 14.1822 0.961692 14.468C1.05861 14.5254 1.1457 14.5781 1.15518 14.585C1.16466 14.592 1.12395 14.7412 1.06477 14.9167C0.918244 15.3507 0.917853 15.92 1.06374 16.3025C1.29022 16.8962 1.83003 17.3701 2.47506 17.5413L2.68756 17.5977L2.65608 17.8048C2.61381 18.0827 2.70501 18.6187 2.84659 18.9249C3.14848 19.5776 3.91614 20.0488 4.67783 20.0488H4.95895L5.01877 20.3124C5.16715 20.9661 5.66527 21.5716 6.23127 21.7861C6.80988 22.0055 7.56889 21.955 8.07971 21.6632L8.27701 21.5505L8.76394 21.7187C9.03176 21.8111 9.60989 21.9724 10.0486 22.077C10.8438 22.2665 11.387 22.4326 11.6414 22.5641L11.7755 22.6333L11.5069 22.8376C11.0993 23.1476 10.7904 23.493 10.7904 23.6388C10.7904 23.7977 10.9935 24 11.1531 24C11.2355 24 11.3923 23.8966 11.6298 23.6858C11.8244 23.513 12.1 23.2925 12.2423 23.1959L12.501 23.0203L12.7597 23.1959C12.902 23.2925 13.1776 23.513 13.3722 23.6858C13.6097 23.8966 13.7665 24 13.8489 24C14.0084 24 14.2116 23.7977 14.2116 23.6388C14.2116 23.493 13.9027 23.1476 13.4951 22.8376L13.2265 22.6333L13.3606 22.5641C13.615 22.4326 14.1581 22.2665 14.9534 22.077C15.3921 21.9724 15.9702 21.8111 16.2381 21.7187L16.725 21.5505L16.9223 21.6632C17.4331 21.955 18.1921 22.0055 18.7707 21.7861C19.3367 21.5716 19.8348 20.9661 19.9832 20.3124L20.043 20.0488H20.3197C20.8218 20.0488 21.3495 19.8446 21.7219 19.506C22.1395 19.1266 22.3387 18.6389 22.342 17.9881L22.3441 17.5898L22.5417 17.5374C23.1712 17.3703 23.7136 16.8907 23.9384 16.3025C24.0825 15.9256 24.0821 15.3219 23.9376 14.917L23.8344 14.6279L23.9698 14.5316C24.977 13.8143 25.2637 12.8188 24.7501 11.8219C24.4955 11.3277 24.0179 10.9417 23.6609 10.9417C23.2248 10.9417 22.5218 11.5242 22.2141 12.1403C21.9596 12.6501 21.9754 13.2766 22.2572 13.8539C22.3211 13.9848 22.3734 14.1091 22.3734 14.1302C22.3734 14.1513 22.2665 14.222 22.1359 14.2872C21.7577 14.4762 21.3711 14.8571 21.1906 15.2187C21.0453 15.5096 21.0316 15.5763 21.0305 15.9979C21.0299 16.2515 21.0448 16.5268 21.0637 16.6098L21.0979 16.7606L20.8193 16.8146C20.4619 16.884 20.0101 17.0982 19.7491 17.3222C19.4794 17.5535 19.2205 18.067 19.1424 18.5255L19.0818 18.8809L18.5405 18.9019C18.08 18.9198 17.9538 18.9431 17.6952 19.0582C17.1687 19.2923 16.7134 19.8798 16.5351 20.555C16.4964 20.7013 16.4524 20.8406 16.4374 20.8647C16.3912 20.9384 15.3973 21.2449 14.7086 21.398C13.9309 21.5708 13.4478 21.7257 12.9042 21.9766L12.501 22.1627L12.0978 21.9766C11.5542 21.7257 11.0711 21.5708 10.2934 21.398C9.60466 21.2449 8.61082 20.9384 8.56463 20.8647C8.54958 20.8406 8.50559 20.7013 8.46694 20.555C8.2886 19.8798 7.83324 19.2923 7.30683 19.0582C7.04814 18.9431 6.92195 18.9198 6.46146 18.9019L5.92019 18.8809L5.85964 18.5255C5.78124 18.0657 5.52222 17.5523 5.25473 17.3265C4.98153 17.096 4.53883 16.8837 4.19017 16.8161L3.90407 16.7606L3.93833 16.6098C3.95719 16.5268 3.97259 16.2525 3.97259 16.0002C3.97259 15.5793 3.95934 15.5149 3.81258 15.221C3.63331 14.8619 3.26642 14.4971 2.87147 14.2852C2.73785 14.2135 2.62857 14.1407 2.62857 14.1233C2.62857 14.106 2.68086 13.9848 2.74474 13.8539C3.02659 13.2766 3.04238 12.6501 2.78785 12.1403C2.57056 11.7052 2.15826 11.2715 1.78873 11.0895C1.43537 10.9154 1.26124 10.9055 0.978505 11.0435ZM1.61063 11.8232C1.727 11.9104 1.90871 12.1056 2.01452 12.2569C2.25131 12.5955 2.29946 12.9498 2.16349 13.3533C2.06877 13.6344 2.04038 13.6173 1.94674 13.2225C1.91423 13.0856 1.84547 12.9359 1.79396 12.8899C1.664 12.774 1.40409 12.7896 1.29716 12.9198C1.19457 13.0447 1.19052 13.1855 1.27888 13.5558C1.31529 13.7082 1.32849 13.8329 1.30825 13.8329C1.24941 13.8329 0.931098 13.4676 0.842099 13.2979C0.707746 13.0417 0.696896 12.6457 0.815805 12.3353C0.924695 12.051 1.22292 11.6645 1.33342 11.6645C1.36959 11.6645 1.49431 11.7359 1.61063 11.8232ZM23.9087 11.8655C24.2658 12.2768 24.3735 12.8908 24.1599 13.2979C24.0709 13.4676 23.7526 13.8329 23.6937 13.8329C23.6735 13.8329 23.6867 13.7082 23.7231 13.5558C23.8115 13.1855 23.8074 13.0447 23.7048 12.9198C23.5979 12.7896 23.338 12.774 23.208 12.8899C23.1565 12.9359 23.0878 13.0856 23.0553 13.2225C22.9616 13.6173 22.9332 13.6344 22.8385 13.3533C22.7025 12.9498 22.7507 12.5955 22.9875 12.2569C23.1798 11.9819 23.5447 11.6645 23.6686 11.6645C23.7047 11.6645 23.8128 11.755 23.9087 11.8655ZM8.07052 12.4716C8.10552 13.1924 8.18982 13.8446 8.34495 14.5951C8.39969 14.86 8.4445 15.087 8.4445 15.0995C8.4445 15.1121 8.31186 15.1318 8.1498 15.1433C7.8221 15.1667 7.7287 15.2293 7.68261 15.4566C7.65749 15.5803 7.67548 15.6329 7.77704 15.733C7.89091 15.8452 7.93871 15.8567 8.29568 15.8567C8.57705 15.8567 8.68916 15.8738 8.68995 15.9169C8.69053 15.95 8.7981 16.2426 8.92894 16.567C9.20957 17.2628 9.57001 17.92 9.92429 18.3818C10.0647 18.5648 10.21 18.7549 10.2472 18.8044C10.3051 18.8812 10.252 18.8723 9.88065 18.7431C8.48697 18.2582 7.16803 17.3121 6.27658 16.1578L6.04399 15.8567H6.23577C6.63516 15.8567 6.82494 15.5083 6.56508 15.2522C6.45565 15.1442 6.40692 15.1339 6.00836 15.1339H5.57163L5.36753 14.6751C4.97518 13.7931 4.75016 12.9667 4.69538 12.2066L4.66674 11.8091H6.35253H8.03832L8.07052 12.4716ZM12.1589 13.4722V15.1353L10.6805 15.1226L9.20204 15.1098L9.09745 14.6438C8.93661 13.9275 8.83143 13.1498 8.8003 12.4475L8.77195 11.8091H10.4654H12.1589V13.4722ZM16.2011 12.4475C16.1704 13.1135 16.03 14.1296 15.8833 14.7484L15.7976 15.1098L14.3204 15.1226L12.8431 15.1353V13.4722V11.8091H14.5368H16.2304L16.2011 12.4475ZM20.3066 12.2066C20.2518 12.9667 20.0268 13.7931 19.6345 14.6751L19.4304 15.1339H17.9939C17.2039 15.1339 16.5575 15.1227 16.5575 15.109C16.5575 15.0953 16.611 14.8188 16.6764 14.4947C16.8179 13.7933 16.9485 12.679 16.9485 12.1726V11.8091H18.6419H20.3353L20.3066 12.2066ZM2.47271 14.896C2.81644 15.0654 3.1413 15.3992 3.21422 15.658C3.2715 15.8614 3.28093 16.3874 3.22727 16.3852C3.20713 16.3844 3.10264 16.2275 2.99512 16.0365C2.85373 15.7853 2.7615 15.6761 2.6619 15.642C2.48351 15.5809 2.28215 15.6863 2.21437 15.8764C2.17194 15.9954 2.1932 16.0644 2.3754 16.3981C2.49084 16.6096 2.57339 16.7945 2.55878 16.8089C2.50604 16.8608 2.06643 16.5488 1.91311 16.3507C1.67901 16.048 1.61508 15.7035 1.71728 15.2952C1.86585 14.7016 1.96829 14.6475 2.47271 14.896ZM23.1295 14.86C23.1704 14.9213 23.2391 15.113 23.2824 15.2859C23.4279 15.8671 23.2159 16.3802 22.7009 16.6942C22.5738 16.7717 22.4578 16.8233 22.4432 16.8089C22.4286 16.7945 22.5111 16.6096 22.6266 16.3981C22.8088 16.0644 22.83 15.9954 22.7876 15.8764C22.7198 15.6863 22.5185 15.5809 22.3401 15.642C22.2405 15.6761 22.1483 15.7853 22.0069 16.0365C21.8993 16.2275 21.7949 16.3844 21.7747 16.3852C21.7545 16.386 21.7381 16.2418 21.7381 16.0646C21.7381 15.5245 22.021 15.1242 22.5865 14.8647C22.9025 14.7196 23.0355 14.7185 23.1295 14.86ZM12.1473 17.507C12.162 19.3602 12.1991 19.2293 11.721 19.0099C11.1374 18.7421 10.6056 18.1989 10.1199 17.3745C9.91486 17.0265 9.55173 16.2235 9.49308 15.9884L9.45985 15.8551L10.7972 15.8679L12.1344 15.8808L12.1473 17.507ZM15.5087 15.9892C15.4905 16.062 15.3868 16.3277 15.2783 16.5794C14.7576 17.7867 14.0694 18.6296 13.3074 18.9932C12.802 19.2344 12.8431 19.3642 12.8431 17.5271C12.8431 16.6437 12.8578 15.9064 12.8757 15.8888C12.8936 15.8711 13.5008 15.8567 14.225 15.8567H15.5418L15.5087 15.9892ZM18.7232 16.1578C17.9968 17.0895 17.0671 17.8437 15.9844 18.3797C15.5117 18.6138 14.7003 18.9117 14.7003 18.8512C14.7003 18.8301 14.7573 18.7602 14.8271 18.6959C15.1938 18.3581 15.8425 17.2057 16.1741 16.3031L16.3376 15.8582L17.6478 15.8574L18.958 15.8567L18.7232 16.1578ZM4.26573 17.5913C4.42198 17.6443 4.62598 17.745 4.71918 17.815C4.89434 17.9468 5.08602 18.3045 5.14115 18.6027L5.17218 18.7707L4.91452 18.5239C4.57055 18.1943 4.46821 18.1451 4.28396 18.2203C4.12522 18.2852 4.0459 18.3972 4.0459 18.5565C4.0459 18.6197 4.17429 18.7919 4.37159 18.9934C4.66566 19.2937 4.6855 19.326 4.57578 19.326C4.1953 19.326 3.69103 18.9998 3.5143 18.6392C3.38322 18.3718 3.33621 17.9594 3.40717 17.6998L3.46318 17.495H3.72245C3.86507 17.495 4.10953 17.5383 4.26573 17.5913ZM21.594 17.6971C21.6632 17.9506 21.6146 18.3631 21.4828 18.6394C21.311 18.9998 20.809 19.326 20.4262 19.326C20.3165 19.326 20.3363 19.2937 20.6304 18.9934C20.8277 18.7919 20.9561 18.6197 20.9561 18.5565C20.9561 18.3972 20.8768 18.2852 20.718 18.2203C20.5338 18.1451 20.4314 18.1943 20.0875 18.5239L19.8298 18.7707L19.8608 18.6027C19.9161 18.3038 20.1077 17.9468 20.2837 17.8144C20.5224 17.6349 20.931 17.5026 21.2596 17.4985L21.5388 17.495L21.594 17.6971ZM6.89126 19.6654C6.9912 19.6928 7.14339 19.7736 7.22936 19.8449C7.38185 19.9714 7.66253 20.3621 7.66253 20.4479C7.66253 20.4715 7.52148 20.413 7.34915 20.318C6.85025 20.0429 6.53844 20.1112 6.53844 20.4955C6.53844 20.6684 6.68658 20.8049 7.07077 20.9859C7.23493 21.0633 7.36929 21.1443 7.36929 21.1659C7.36929 21.1876 7.22086 21.2051 7.03939 21.2048C6.29314 21.2037 5.70759 20.6405 5.70759 19.9238C5.70759 19.7448 5.72426 19.7135 5.84199 19.6711C6.02107 19.6066 6.66385 19.6032 6.89126 19.6654ZM19.1111 19.6659C19.2864 19.7138 19.2944 19.725 19.2944 19.922C19.2944 20.4272 18.8801 21.0166 18.4334 21.1467C18.2073 21.2125 17.6327 21.2263 17.6327 21.1659C17.6327 21.1443 17.7671 21.0633 17.9312 20.9859C18.3154 20.8049 18.4635 20.6684 18.4635 20.4955C18.4635 20.1112 18.1517 20.0429 17.6528 20.318C17.4805 20.413 17.3395 20.4715 17.3395 20.4479C17.3395 20.3762 17.6109 19.9838 17.7434 19.864C17.8118 19.8021 17.9524 19.7218 18.0557 19.6854C18.2803 19.6065 18.8554 19.5958 19.1111 19.6659Z" fill="#AC9376"/>
</svg>
